<?xml version="1.0" standalone="no"?>
<!DOCTYPE svg PUBLIC "-//W3C//DTD SVG 20010904//EN"
 "http://www.w3.org/TR/2001/REC-SVG-20010904/DTD/svg10.dtd">
<svg version="1.0" xmlns="http://www.w3.org/2000/svg"
 width="512.000000pt" height="512.000000pt" viewBox="0 0 512.000000 512.000000"
 preserveAspectRatio="xMidYMid meet">
<metadata>
Created by potrace 1.14, written by Peter Selinger 2001-2017
</metadata>
<g transform="translate(0.000000,512.000000) scale(0.100000,-0.100000)"
fill="#000000" stroke="none">
<path d="M2017 4811 c-4 -17 -12 -20 -52 -17 -38 2 -49 -1 -52 -15 -8 -29 -83
-41 -83 -12 0 15 -1 15 -18 0 -14 -13 -21 -14 -30 -5 -9 9 -12 8 -12 -7 0 -17
-2 -18 -10 -5 -10 15 -16 11 -35 -25 -3 -6 -7 -5 -11 3 -8 17 -24 15 -24 -3 0
-16 -1 -16 -37 -20 -17 -2 -23 3 -23 18 0 19 -1 20 -20 2 -11 -10 -20 -29 -20
-42 0 -20 -5 -23 -35 -23 -24 0 -35 5 -35 15 0 8 -5 15 -11 15 -6 0 -8 -9 -4
-20 4 -12 2 -20 -5 -20 -6 0 -8 5 -5 10 12 19 -12 10 -39 -15 -32 -29 -53 -32
-58 -7 -3 15 -6 14 -23 -6 -11 -12 -21 -27 -21 -32 -3 -23 -5 -24 -14 -10 -8
12 -10 11 -10 -7 0 -23 -23 -32 -35 -13 -9 15 -25 12 -19 -3 4 -10 -3 -12 -25
-9 -25 3 -32 0 -42 -22 -13 -28 -25 -33 -32 -13 -2 6 -10 -8 -16 -32 -11 -37
-15 -42 -36 -39 -17 4 -22 1 -18 -10 6 -14 -12 -32 -32 -32 -5 0 -4 4 4 9 7 5
10 14 6 21 -5 8 -11 5 -22 -9 -8 -12 -11 -26 -7 -33 5 -8 2 -9 -9 -5 -10 4
-24 10 -32 13 -10 4 -15 0 -15 -13 0 -23 -30 -53 -52 -53 -22 0 -46 -31 -50
-65 -3 -27 -6 -30 -32 -27 -23 3 -28 1 -23 -12 9 -24 -14 -31 -31 -10 -14 18
-14 18 -9 -3 3 -13 0 -21 -6 -20 -6 1 -12 -7 -14 -18 -9 -46 -14 -51 -28 -31
-12 16 -13 14 -10 -25 3 -35 1 -41 -8 -29 -19 24 -47 24 -47 0 0 -11 -3 -19
-7 -19 -32 5 -43 -2 -38 -24 4 -16 -2 -31 -20 -51 -19 -21 -25 -35 -21 -52 4
-14 2 -24 -4 -24 -5 0 -10 8 -10 17 0 30 -19 0 -23 -37 -3 -19 -11 -39 -20
-44 -24 -15 -34 2 -11 19 10 8 15 14 9 14 -22 0 -66 -52 -71 -84 0 -5 -2 -15
-2 -22 -1 -7 -8 -10 -15 -7 -14 5 -16 -3 -18 -58 0 -32 -13 -36 -29 -10 -11
16 -11 16 -6 0 3 -12 0 -18 -9 -18 -12 0 -12 -5 -4 -26 10 -29 3 -47 -10 -26
-6 10 -13 6 -25 -13 -17 -25 -17 -28 1 -47 18 -20 18 -21 -6 -13 -23 7 -24 6
-18 -41 3 -33 2 -43 -5 -31 -15 27 -29 20 -16 -9 9 -20 9 -30 0 -45 -7 -10
-12 -28 -12 -40 0 -18 -4 -20 -27 -14 -23 5 -25 4 -14 -9 9 -11 10 -20 4 -28
-20 -26 -31 -74 -21 -92 13 -23 2 -54 -14 -38 -20 20 -30 13 -14 -10 19 -27
21 -48 3 -48 -17 0 -35 -68 -30 -111 5 -39 -12 -62 -29 -38 -7 10 -8 9 -3 -6
17 -47 17 -57 -1 -77 -14 -15 -16 -22 -6 -25 17 -6 16 -73 -2 -73 -17 0 -27
-37 -19 -68 3 -13 1 -22 -6 -22 -7 0 -8 -8 -1 -24 6 -16 5 -27 -3 -35 -19 -19
-15 -74 5 -89 19 -14 24 -42 8 -42 -5 0 -10 -6 -10 -14 0 -8 -6 -16 -12 -19
-10 -3 -10 -9 0 -26 8 -14 10 -35 6 -56 -6 -33 7 -48 21 -25 3 5 13 6 22 3 12
-5 15 -2 10 10 -5 15 -3 16 13 7 24 -13 33 -13 25 0 -9 15 23 43 41 36 11 -4
15 -2 11 8 -5 12 18 22 65 30 14 2 27 22 32 50 6 33 26 60 26 34 0 -22 32 -48
37 -30 3 6 8 10 13 7 4 -2 15 4 25 15 12 14 14 20 5 20 -10 0 -10 3 0 15 10
12 15 12 36 -2 23 -15 26 -15 39 3 8 10 13 29 10 42 -7 27 11 29 25 2 10 -20
12 -20 34 -3 13 10 22 23 19 29 -2 7 0 15 6 19 6 3 11 -1 11 -9 0 -18 16 -21
25 -6 4 7 12 7 18 2 24 -18 58 -11 69 14 8 17 15 21 23 14 8 -7 24 -2 51 17
24 16 52 26 72 26 17 -1 32 3 32 8 0 5 9 9 20 9 10 0 23 7 28 15 8 15 36 16
58 2 6 -3 14 -3 18 0 4 4 17 8 29 10 12 2 23 7 25 12 1 4 19 7 39 5 19 -1 46
1 58 6 14 5 41 4 71 -4 27 -7 67 -12 89 -11 22 1 43 -3 47 -8 4 -7 11 -7 21 1
15 13 47 6 47 -9 0 -5 11 -7 25 -3 14 3 25 2 25 -3 0 -5 25 -9 55 -9 30 1 55
-2 55 -5 0 -4 19 -9 43 -12 23 -2 51 -7 62 -11 11 -3 41 -11 68 -18 26 -6 47
-15 47 -20 0 -4 10 -8 23 -8 13 0 28 -5 35 -12 6 -6 26 -13 44 -15 18 -2 42
-12 53 -23 60 -58 66 -61 80 -50 9 8 17 7 28 -4 8 -8 17 -12 20 -9 4 3 29 -14
58 -38 28 -23 62 -43 76 -44 14 0 29 -8 34 -18 6 -9 16 -17 23 -17 7 0 22 -11
34 -25 13 -14 33 -30 45 -34 12 -5 29 -22 37 -37 8 -16 21 -34 29 -40 8 -6 21
-26 30 -45 14 -28 21 -33 44 -31 19 3 27 -1 27 -12 0 -9 7 -16 15 -16 8 0 15
-4 15 -9 0 -6 12 -23 26 -38 14 -15 32 -40 40 -56 8 -15 20 -27 27 -27 21 -1
56 -68 67 -131 6 -34 23 -79 38 -101 14 -23 26 -50 27 -62 0 -11 5 -20 12 -19
7 2 10 -4 6 -13 -3 -9 -2 -19 3 -23 15 -10 33 -95 24 -106 -6 -7 -2 -23 9 -41
16 -26 30 -106 36 -204 1 -19 3 -37 4 -40 1 -3 4 -34 6 -70 2 -45 -1 -72 -12
-88 -10 -17 -12 -31 -5 -50 10 -31 9 -69 -2 -95 -5 -10 -4 -23 3 -30 6 -8 7
-18 3 -23 -14 -16 -33 -84 -28 -93 4 -5 2 -11 -3 -13 -5 -1 -12 -21 -15 -43
-4 -21 -12 -42 -18 -46 -6 -4 -8 -14 -5 -23 4 -10 -3 -25 -19 -39 -18 -17 -26
-35 -27 -63 -1 -22 -9 -46 -19 -55 -10 -9 -18 -23 -18 -30 0 -8 -9 -25 -19
-38 -10 -14 -17 -31 -14 -38 3 -7 -2 -16 -11 -19 -9 -3 -16 -13 -16 -21 0 -8
-7 -31 -16 -51 -44 -102 -56 -128 -64 -143 -6 -12 -3 -19 16 -27 20 -10 25 -8
34 9 11 20 39 22 53 4 4 -6 11 -4 17 5 7 12 13 13 27 4 24 -15 123 4 150 29
22 19 59 23 65 6 2 -6 15 -1 32 12 21 16 30 19 36 10 5 -10 9 -9 13 2 3 8 19
14 38 15 18 0 36 8 41 17 5 8 13 13 18 10 5 -3 23 1 39 10 17 8 41 15 56 15
14 0 25 5 25 11 0 6 9 9 19 6 12 -3 22 1 25 9 3 8 13 14 22 14 17 0 67 25 96
48 9 8 21 11 26 8 6 -3 13 1 16 10 4 9 9 15 12 12 2 -3 19 8 35 23 17 16 42
29 55 29 18 0 24 6 24 21 0 13 5 19 13 16 7 -3 19 4 26 15 7 11 18 17 26 15 7
-3 21 3 30 13 9 10 23 16 31 13 8 -3 14 1 14 9 0 7 12 22 27 33 15 11 36 29
48 40 11 11 24 20 30 20 5 0 11 9 14 20 4 24 22 39 80 67 24 12 46 29 48 38 2
9 14 20 26 25 12 6 27 21 33 33 8 16 13 19 17 10 3 -8 9 -3 17 14 7 15 23 34
36 42 14 10 25 30 29 54 6 37 36 69 54 57 5 -2 12 6 15 19 3 13 19 38 35 55
16 17 26 31 23 31 -4 0 -1 4 7 9 8 5 16 17 17 25 1 9 14 30 28 47 14 17 26 39
26 49 0 10 7 20 15 24 8 3 15 15 15 26 0 12 11 31 25 44 14 13 25 33 25 45 0
12 6 21 15 21 11 0 14 7 9 24 -4 17 1 31 15 45 12 12 21 28 21 37 0 9 8 28 18
42 24 35 36 64 33 81 -1 8 3 17 10 22 7 4 14 24 15 44 0 20 7 40 14 45 7 4 10
15 7 24 -7 17 9 55 27 68 6 4 6 16 -1 31 -10 20 -8 35 8 77 11 28 17 55 14 60
-3 5 0 20 7 32 7 13 13 25 13 28 1 3 5 17 9 32 11 39 13 120 4 141 -5 10 -5
17 1 17 5 0 7 9 4 20 -3 11 -1 20 3 20 5 0 9 52 9 115 0 63 -4 115 -9 115 -4
0 -5 11 -2 25 4 14 2 25 -3 25 -5 0 -5 15 -1 37 5 20 7 40 4 45 -3 4 -6 41 -8
81 -3 74 -9 97 -26 97 -16 0 -80 -75 -75 -87 2 -8 -4 -13 -16 -13 -11 0 -23
-8 -26 -17 -4 -10 -15 -27 -25 -37 -10 -11 -18 -23 -18 -27 0 -4 -11 -10 -24
-13 -15 -4 -28 -17 -35 -38 -6 -17 -20 -37 -31 -45 -11 -8 -20 -21 -20 -29 0
-8 -7 -14 -15 -14 -8 0 -15 -6 -15 -14 0 -8 -13 -23 -30 -33 -16 -9 -30 -23
-30 -29 0 -13 -28 -28 -48 -25 -9 1 -11 -6 -7 -21 5 -18 1 -27 -18 -37 -13 -7
-32 -26 -42 -43 -10 -17 -32 -43 -48 -57 -17 -14 -49 -45 -73 -69 -23 -23 -47
-42 -53 -42 -6 0 -11 -8 -11 -18 0 -11 -16 -27 -40 -41 -22 -12 -40 -28 -40
-36 0 -7 -8 -16 -18 -19 -9 -3 -33 -20 -51 -37 -47 -42 -113 -84 -129 -80 -8
1 -21 -4 -30 -12 -13 -12 -67 -17 -67 -8 0 2 -26 3 -57 4 -32 1 -58 5 -58 9 0
5 -11 8 -23 8 -16 0 -28 9 -35 25 -6 14 -18 25 -26 25 -8 0 -32 17 -53 37 -21
20 -41 37 -44 37 -4 1 -31 25 -60 53 -30 29 -62 53 -71 53 -11 0 -15 5 -12 15
4 9 0 15 -10 15 -9 0 -16 5 -16 10 0 6 -6 10 -13 10 -8 0 -19 11 -25 24 -6 14
-28 32 -49 42 -21 10 -49 28 -63 41 -14 13 -39 35 -56 51 -17 15 -34 35 -37
45 -4 9 -14 17 -23 17 -9 0 -22 7 -28 16 -6 8 -20 17 -31 18 -12 2 -19 10 -17
20 2 10 -4 16 -15 16 -10 0 -24 9 -31 21 -7 11 -19 18 -26 16 -8 -3 -18 5 -25
19 -6 13 -18 24 -27 24 -9 0 -24 8 -33 18 -9 9 -28 23 -43 31 -16 8 -28 18
-28 23 0 4 -5 8 -11 8 -6 0 -20 11 -31 25 -11 14 -26 25 -33 25 -8 0 -23 13
-35 29 -11 17 -29 33 -40 36 -11 4 -20 13 -20 21 0 8 -9 14 -20 14 -10 0 -23
6 -27 13 -4 6 -24 21 -43 31 -19 11 -45 30 -57 43 -12 13 -29 23 -38 23 -8 0
-15 4 -15 9 0 4 -17 20 -37 34 -21 14 -50 37 -65 51 -15 14 -33 26 -41 26 -7
0 -24 11 -37 25 -13 14 -28 25 -33 25 -5 0 -18 11 -29 25 -11 14 -26 25 -34
25 -8 0 -14 4 -14 8 0 5 -19 22 -42 39 -43 31 -94 80 -169 163 -40 45 -40 45
-33 105 4 33 7 80 7 105 0 25 5 53 12 63 7 10 11 26 8 37 -3 10 0 21 6 24 5 4
8 13 4 21 -3 9 0 22 7 30 7 8 13 33 14 55 0 23 6 42 14 45 8 3 11 13 7 25 -4
13 -1 22 9 26 11 4 14 14 10 29 -4 15 0 24 11 29 12 4 15 13 10 34 -4 20 -1
33 10 42 8 7 15 18 15 25 0 7 7 18 15 25 9 7 13 21 10 30 -7 21 11 67 39 98
11 12 16 22 13 22 -4 0 -1 10 7 23 8 12 18 39 21 59 4 21 14 43 21 49 10 8 13
22 9 41 -5 21 -3 28 9 28 9 0 16 5 16 10 0 6 7 10 15 10 9 0 15 9 15 24 0 14
5 28 11 32 6 3 8 15 6 26 -4 13 3 29 18 44 15 14 21 31 18 43 -3 13 2 23 17
31 17 9 19 14 10 25 -7 8 -9 19 -5 25 11 17 -17 11 -31 -7 -13 -17 -15 -17
-28 0 -13 17 -14 16 -19 -2z m-352 -131 c3 -5 1 -10 -4 -10 -6 0 -11 5 -11 10
0 6 2 10 4 10 3 0 8 -4 11 -10z"/>
<path d="M2713 4284 c-24 -19 -51 -34 -61 -32 -16 2 -94 -63 -98 -82 -3 -15
-20 -47 -31 -58 -7 -7 -13 -21 -13 -31 0 -10 -9 -29 -21 -42 -11 -13 -23 -37
-26 -53 -3 -16 -13 -31 -22 -33 -9 -2 -27 -29 -41 -59 -14 -31 -31 -60 -38
-66 -9 -8 -10 -14 -1 -25 10 -11 6 -20 -18 -46 -20 -20 -33 -47 -38 -74 -6
-36 -4 -43 15 -53 12 -6 19 -18 16 -25 -6 -18 11 -31 52 -40 18 -3 37 -15 43
-26 6 -12 15 -17 22 -12 7 4 24 6 39 4 39 -4 152 56 212 112 27 26 54 47 58
47 4 0 8 7 8 16 0 9 12 28 28 43 42 42 82 92 82 103 0 6 18 30 40 54 22 24 40
52 40 62 0 10 5 23 12 30 7 7 22 43 34 79 l22 67 -25 33 c-19 24 -23 36 -15
46 19 23 -3 38 -74 48 -38 6 -77 18 -86 26 -12 11 -21 12 -34 5 -13 -7 -21 -6
-29 4 -8 11 -18 7 -52 -22z"/>
<path d="M3301 4167 c-12 -24 -21 -47 -21 -51 0 -4 -9 -21 -21 -37 -11 -16
-18 -33 -14 -39 9 -14 13 -133 5 -145 -4 -5 -15 -44 -25 -85 -10 -41 -21 -79
-26 -84 -15 -16 -10 -26 11 -26 10 0 24 -9 30 -20 6 -11 21 -31 35 -46 20 -22
30 -25 56 -20 17 3 38 2 48 -3 18 -10 112 15 119 31 3 7 28 19 95 46 15 7 27
16 27 22 0 5 7 10 15 10 8 0 15 4 15 8 0 4 21 21 46 37 35 22 44 33 40 49 -3
11 2 28 11 38 13 15 14 23 4 44 -6 15 -9 34 -6 44 3 9 1 28 -4 41 -16 41 -130
149 -157 149 -8 0 -14 5 -14 10 0 6 -6 10 -14 10 -7 0 -19 7 -26 15 -9 11 -16
12 -30 3 -13 -9 -22 -9 -32 -1 -7 6 -28 14 -45 18 -18 3 -33 11 -33 16 0 14
-28 11 -33 -3 -3 -10 -7 -10 -19 0 -14 11 -19 7 -37 -31z"/>
<path d="M280 3470 c0 -5 5 -10 10 -10 6 0 10 5 10 10 0 6 -4 10 -10 10 -5 0
-10 -4 -10 -10z"/>
<path d="M3925 3460 c-3 -5 -26 -10 -51 -10 -24 0 -44 -4 -44 -10 0 -5 -9 -10
-20 -10 -11 0 -20 -7 -20 -15 0 -8 -4 -15 -9 -15 -5 0 -11 -10 -14 -21 -3 -12
-12 -20 -19 -17 -13 5 -24 -6 -89 -85 -18 -22 -38 -36 -45 -33 -10 4 -14 -3
-14 -19 0 -17 -6 -25 -22 -27 -15 -2 -24 -11 -26 -26 -2 -13 -10 -26 -17 -28
-8 -3 -17 -19 -20 -34 -4 -16 -15 -32 -26 -35 -10 -4 -19 -15 -19 -25 0 -10
-9 -20 -21 -23 -18 -5 -21 -11 -16 -37 4 -19 3 -29 -3 -25 -10 6 -12 -2 -15
-65 -1 -16 -6 -35 -12 -42 -13 -17 -9 -71 5 -76 7 -2 12 -8 12 -13 0 -22 56
-79 77 -79 12 0 33 -5 47 -11 20 -10 35 -6 93 21 37 18 72 38 76 46 4 8 16 14
26 14 10 0 24 11 31 25 7 14 19 25 26 25 17 0 154 133 154 148 0 7 7 12 15 12
8 0 15 7 15 15 0 9 17 32 37 53 21 20 36 43 35 50 -2 6 2 12 7 12 6 0 22 23
36 50 14 28 30 50 36 50 6 0 9 9 6 19 -3 11 2 29 10 40 12 18 12 25 -2 58 -57
130 -71 147 -99 124 -11 -9 -16 -9 -21 0 -4 6 -19 9 -36 5 -22 -4 -29 -2 -29
9 0 17 -26 20 -35 5z"/>
<path d="M1000 2459 c-111 -28 -120 -34 -124 -89 -1 -8 -9 -26 -18 -40 -17
-25 -15 -75 3 -64 5 3 9 0 9 -5 0 -6 -4 -11 -10 -11 -23 0 -8 -16 17 -18 15
-1 37 -9 49 -17 23 -15 61 -14 107 4 24 9 66 12 140 10 9 0 17 -4 17 -9 0 -4
10 -10 23 -14 13 -3 37 -18 53 -33 16 -15 32 -26 37 -25 4 1 12 -9 16 -22 5
-13 21 -36 36 -52 14 -15 23 -34 20 -43 -3 -8 -1 -17 5 -21 6 -4 18 -35 26
-71 8 -35 21 -71 29 -79 8 -9 15 -24 15 -34 0 -9 10 -20 23 -25 32 -12 100 -6
108 10 3 8 14 30 24 49 26 50 33 182 11 214 -9 14 -16 31 -16 39 0 7 -9 23
-20 35 -11 12 -20 30 -20 41 0 20 -8 32 -75 105 -19 21 -35 42 -35 47 0 10
-82 59 -100 59 -7 0 -21 6 -29 14 -20 16 -108 39 -122 30 -5 -3 -16 -1 -24 6
-17 14 -129 20 -175 9z"/>
<path d="M1051 1680 c-19 -28 -41 -50 -49 -50 -12 0 -14 -11 -9 -59 3 -41 1
-61 -6 -64 -8 -3 -6 -11 6 -25 10 -11 19 -34 19 -51 1 -17 5 -31 10 -31 4 0 8
-10 8 -22 1 -27 21 -53 73 -91 20 -15 37 -34 37 -41 0 -19 45 -61 85 -81 19
-9 35 -20 35 -26 0 -5 10 -14 23 -19 12 -6 29 -14 37 -18 8 -5 38 -19 65 -31
28 -13 57 -27 66 -31 8 -4 23 -4 32 1 9 6 32 6 57 0 39 -9 42 -8 51 16 5 13 9
30 9 38 0 7 6 20 13 27 32 32 27 118 -7 118 -8 0 -16 7 -20 15 -3 8 -16 15
-29 15 -14 0 -42 7 -62 16 -21 8 -46 13 -57 11 -10 -3 -18 -1 -18 3 0 5 -28
27 -62 50 -62 42 -108 83 -108 96 0 4 -7 12 -17 19 -13 10 -16 29 -16 94 l1
82 -42 45 c-30 32 -45 41 -53 33 -8 -8 -13 -8 -17 0 -12 18 -20 13 -55 -39z"/>
<path d="M1868 1698 c-7 -4 -26 -13 -43 -20 -18 -9 -29 -20 -27 -30 1 -9 -5
-23 -15 -30 -29 -22 -41 -51 -31 -77 4 -13 6 -33 2 -44 -4 -12 -2 -17 4 -13 5
3 12 -1 16 -9 3 -8 12 -15 21 -15 8 0 15 -4 15 -9 0 -15 60 -32 79 -22 26 14
238 24 246 11 3 -5 15 -10 26 -10 30 0 82 -55 74 -79 -4 -13 0 -23 11 -29 9
-5 18 -22 20 -38 11 -82 12 -134 4 -139 -15 -9 -12 -46 5 -64 8 -9 29 -33 46
-53 17 -21 37 -38 44 -38 7 0 18 -6 24 -14 12 -15 71 -19 71 -6 0 4 9 10 20
13 12 3 20 14 20 27 0 12 13 41 29 64 25 36 29 49 24 87 -3 24 -12 56 -19 70
-7 15 -11 29 -8 32 9 9 -26 119 -47 145 -10 14 -19 31 -19 38 0 8 -6 14 -12
14 -12 0 -18 7 -63 78 -11 18 -23 32 -27 32 -4 0 -19 11 -33 24 -15 14 -33 22
-40 20 -7 -3 -19 4 -25 16 -6 12 -14 19 -17 16 -3 -3 -18 1 -32 8 -27 15 -86
32 -136 42 -47 8 -192 10 -207 2z"/>
</g>
</svg>
